<svg width="24" height="24" viewBox="0 0 24 24" fill="none" xmlns="http://www.w3.org/2000/svg">
<path d="M12.125 2C10.1225 2 8.1649 2.59382 6.49986 3.70637C4.83481 4.81892 3.53706 6.40023 2.77072 8.25033C2.00439 10.1004 1.80388 12.1362 2.19455 14.1003C2.58523 16.0643 3.54954 17.8685 4.96555 19.2845C6.38156 20.7005 8.18566 21.6648 10.1497 22.0555C12.1138 22.4461 14.1496 22.2456 15.9997 21.4793C17.8498 20.7129 19.4311 19.4152 20.5436 17.7501C21.6562 16.0851 22.25 14.1275 22.25 12.125C22.247 9.4406 21.1793 6.86699 19.2812 4.96883C17.383 3.07067 14.8094 2.00298 12.125 2ZM7.58469 18.5534C8.10695 17.8393 8.79028 17.2585 9.57918 16.8581C10.3681 16.4577 11.2403 16.249 12.125 16.249C13.0097 16.249 13.8819 16.4577 14.6708 16.8581C15.4597 17.2585 16.1431 17.8393 16.6653 18.5534C15.3384 19.4945 13.7518 20 12.125 20C10.4982 20 8.91165 19.4945 7.58469 18.5534ZM9.5 11.375C9.5 10.8558 9.65396 10.3483 9.9424 9.91663C10.2308 9.48495 10.6408 9.1485 11.1205 8.94982C11.6001 8.75114 12.1279 8.69915 12.6371 8.80044C13.1463 8.90172 13.614 9.15173 13.9812 9.51884C14.3483 9.88596 14.5983 10.3537 14.6996 10.8629C14.8009 11.3721 14.7489 11.8999 14.5502 12.3795C14.3515 12.8592 14.0151 13.2692 13.5834 13.5576C13.1517 13.846 12.6442 14 12.125 14C11.4288 14 10.7611 13.7234 10.2688 13.2312C9.77657 12.7389 9.5 12.0712 9.5 11.375ZM18.3125 16.9944C17.5833 16.0669 16.6539 15.3164 15.5938 14.7987C16.2694 14.1146 16.7276 13.2458 16.9108 12.3019C17.0939 11.3579 16.9938 10.3808 16.623 9.49361C16.2523 8.6064 15.6274 7.84864 14.827 7.31568C14.0267 6.78271 13.0866 6.49834 12.125 6.49834C11.1634 6.49834 10.2233 6.78271 9.42297 7.31568C8.62262 7.84864 7.99775 8.6064 7.62698 9.49361C7.25621 10.3808 7.1561 11.3579 7.33924 12.3019C7.52239 13.2458 7.98061 14.1146 8.65625 14.7987C7.5961 15.3164 6.66668 16.0669 5.9375 16.9944C5.02161 15.8333 4.45114 14.4379 4.2914 12.9677C4.13165 11.4975 4.3891 10.0121 5.03425 8.68144C5.67941 7.35078 6.6862 6.22866 7.93939 5.44355C9.19257 4.65843 10.6415 4.24203 12.1203 4.24203C13.5991 4.24203 15.0481 4.65843 16.3012 5.44355C17.5544 6.22866 18.5612 7.35078 19.2064 8.68144C19.8515 10.0121 20.109 11.4975 19.9492 12.9677C19.7895 14.4379 19.219 15.8333 18.3031 16.9944H18.3125Z" fill="black"/>
</svg>
