<svg width="16" height="19" viewBox="0 0 16 19" fill="none" xmlns="http://www.w3.org/2000/svg">
<path d="M10.2833 7.00019L9.995 14.5002M6.005 14.5002L5.71667 7.00019M14.0233 4.32519C14.3083 4.36852 14.5917 4.41436 14.875 4.46352M14.0233 4.32519L13.1333 15.8944C13.097 16.3654 12.8842 16.8053 12.5375 17.1262C12.1908 17.4471 11.7358 17.6253 11.2633 17.6252H4.73667C4.26425 17.6253 3.80919 17.4471 3.46248 17.1262C3.11578 16.8053 2.90299 16.3654 2.86667 15.8944L1.97667 4.32519M14.0233 4.32519C13.0616 4.17979 12.0948 4.06944 11.125 3.99436M1.97667 4.32519C1.69167 4.36769 1.40833 4.41352 1.125 4.46269M1.97667 4.32519C2.93844 4.17979 3.9052 4.06944 4.875 3.99436M11.125 3.99436V3.23102C11.125 2.24769 10.3667 1.42769 9.38333 1.39686C8.46135 1.36739 7.53865 1.36739 6.61667 1.39686C5.63333 1.42769 4.875 2.24852 4.875 3.23102V3.99436M11.125 3.99436C9.04477 3.83359 6.95523 3.83359 4.875 3.99436" stroke="#FF7262" stroke-width="1.5" stroke-linecap="round" stroke-linejoin="round"/>
</svg>
