<svg width="20" height="21" viewBox="0 0 20 21" fill="none" xmlns="http://www.w3.org/2000/svg">
<path d="M9.22973 3.53294H4.39621C2.79452 3.53294 1.49609 4.83137 1.49609 6.43305V16.1002C1.49609 17.7019 2.79452 19.0003 4.39621 19.0003H14.0632C15.6649 19.0003 16.9634 17.7019 16.9634 16.1002L16.9634 11.2666M6.32961 14.1667L9.84679 13.458C10.0335 13.4204 10.205 13.3284 10.3396 13.1937L18.2131 5.31585C18.5906 4.93815 18.5904 4.32591 18.2126 3.94853L16.5447 2.28251C16.167 1.90528 15.5551 1.90554 15.1777 2.28308L7.30338 10.1618C7.16899 10.2962 7.07724 10.4673 7.03958 10.6536L6.32961 14.1667Z" stroke="white" stroke-width="1.45006" stroke-linecap="round" stroke-linejoin="round"/>
</svg>
