<svg width="66" height="49" viewBox="0 0 66 49" fill="none" xmlns="http://www.w3.org/2000/svg">
<g filter="url(#filter0_dd_1_4039)">
<rect x="9.45703" y="5" width="46.6143" height="30.0304" rx="5.37857" fill="white"/>
<path d="M31.751 23.6141H30.7025V15.4559H33.482C34.1864 15.4559 34.7871 15.6907 35.2785 16.1603C35.7809 16.6299 36.0321 17.2033 36.0321 17.8804C36.0321 18.5739 35.7809 19.1473 35.2785 19.6114C34.7925 20.0756 34.1919 20.3049 33.482 20.3049H31.751V23.6141ZM31.751 16.4606V19.3056H33.5038C33.9188 19.3056 34.2683 19.1637 34.5414 18.8852C34.8198 18.6067 34.9618 18.2681 34.9618 17.8859C34.9618 17.5091 34.8198 17.176 34.5414 16.8975C34.2683 16.6081 33.9243 16.4661 33.5038 16.4661H31.751V16.4606Z" fill="#3C4043"/>
<path d="M38.7732 17.8476C39.5487 17.8476 40.1603 18.0551 40.608 18.4702C41.0558 18.8852 41.2797 19.4531 41.2797 20.1739V23.6141H40.2804V22.8387H40.2367C39.8053 23.4776 39.2265 23.7943 38.5057 23.7943C37.8886 23.7943 37.3753 23.6141 36.9603 23.2483C36.5453 22.8824 36.3378 22.4292 36.3378 21.8831C36.3378 21.3043 36.5562 20.8456 36.9931 20.507C37.4299 20.163 38.0142 19.9937 38.7405 19.9937C39.363 19.9937 39.8763 20.1084 40.2749 20.3377V20.0974C40.2749 19.7316 40.1329 19.4258 39.8435 19.1691C39.5541 18.9125 39.2156 18.7869 38.8279 18.7869C38.2436 18.7869 37.7794 19.0326 37.4408 19.5295L36.518 18.9507C37.0258 18.2135 37.7794 17.8476 38.7732 17.8476ZM37.419 21.8995C37.419 22.1725 37.5337 22.4018 37.7685 22.582C37.9978 22.7623 38.2709 22.8551 38.5821 22.8551C39.0244 22.8551 39.4176 22.6913 39.7616 22.3636C40.1056 22.036 40.2804 21.6537 40.2804 21.2114C39.9527 20.9548 39.4995 20.8237 38.9152 20.8237C38.4893 20.8237 38.1343 20.9275 37.8504 21.1295C37.561 21.3425 37.419 21.5991 37.419 21.8995Z" fill="#3C4043"/>
<path d="M46.9807 18.0279L43.4858 26.066H42.4046L43.7043 23.2538L41.3999 18.0279H42.5412L44.2012 22.036H44.223L45.8394 18.0279H46.9807Z" fill="#3C4043"/>
<path d="M27.5806 19.6442C27.5806 19.3024 27.55 18.9753 27.4932 18.6607H23.0985V20.4628L25.6295 20.4633C25.5268 21.0629 25.1965 21.574 24.6903 21.9148V23.0839H26.1969C27.0766 22.2697 27.5806 21.0662 27.5806 19.6442Z" fill="#4285F4"/>
<path d="M24.6908 21.9148C24.2714 22.1977 23.7314 22.3631 23.0996 22.3631C21.8791 22.3631 20.8438 21.5408 20.473 20.4322H18.9189V21.638C19.6888 23.1659 21.2713 24.2143 23.0996 24.2143C24.3632 24.2143 25.4247 23.7987 26.1974 23.0834L24.6908 21.9148Z" fill="#34A853"/>
<path d="M20.3266 19.5377C20.3266 19.2265 20.3785 18.9256 20.473 18.6427V17.437H18.9189C18.6005 18.0688 18.4214 18.782 18.4214 19.5377C18.4214 20.2935 18.601 21.0066 18.9189 21.6384L20.473 20.4327C20.3785 20.1499 20.3266 19.849 20.3266 19.5377Z" fill="#FABB05"/>
<path d="M23.0996 16.7118C23.7892 16.7118 24.4068 16.9494 24.8945 17.4135L26.2296 16.0795C25.4187 15.3243 24.3615 14.8607 23.0996 14.8607C21.2719 14.8607 19.6888 15.9091 18.9189 17.437L20.473 18.6427C20.8437 17.5342 21.8791 16.7118 23.0996 16.7118Z" fill="#E94235"/>
</g>
<defs>
<filter id="filter0_dd_1_4039" x="0.492745" y="0.517857" width="64.5428" height="47.9589" filterUnits="userSpaceOnUse" color-interpolation-filters="sRGB">
<feFlood flood-opacity="0" result="BackgroundImageFix"/>
<feColorMatrix in="SourceAlpha" type="matrix" values="0 0 0 0 0 0 0 0 0 0 0 0 0 0 0 0 0 0 127 0" result="hardAlpha"/>
<feOffset dy="0.448214"/>
<feGaussianBlur stdDeviation="2.24107"/>
<feColorMatrix type="matrix" values="0 0 0 0 0.717647 0 0 0 0 0.717647 0 0 0 0 0.717647 0 0 0 0.08 0"/>
<feBlend mode="normal" in2="BackgroundImageFix" result="effect1_dropShadow_1_4039"/>
<feColorMatrix in="SourceAlpha" type="matrix" values="0 0 0 0 0 0 0 0 0 0 0 0 0 0 0 0 0 0 127 0" result="hardAlpha"/>
<feOffset dy="4.48214"/>
<feGaussianBlur stdDeviation="4.48214"/>
<feColorMatrix type="matrix" values="0 0 0 0 0.717647 0 0 0 0 0.717647 0 0 0 0 0.717647 0 0 0 0.08 0"/>
<feBlend mode="normal" in2="effect1_dropShadow_1_4039" result="effect2_dropShadow_1_4039"/>
<feBlend mode="normal" in="SourceGraphic" in2="effect2_dropShadow_1_4039" result="shape"/>
</filter>
</defs>
</svg>
