<svg width="24" height="24" viewBox="0 0 24 24" fill="none" xmlns="http://www.w3.org/2000/svg">
<path d="M21.7958 20.2039L17.3436 15.7499C18.6785 14.0103 19.3018 11.8281 19.0869 9.64594C18.872 7.46377 17.8352 5.44503 16.1866 3.99924C14.538 2.55344 12.4013 1.78886 10.2097 1.86058C8.01817 1.93231 5.93595 2.83497 4.38546 4.38546C2.83497 5.93595 1.93231 8.01817 1.86058 10.2097C1.78886 12.4013 2.55344 14.538 3.99924 16.1866C5.44503 17.8352 7.46377 18.872 9.64594 19.0869C11.8281 19.3018 14.0103 18.6785 15.7499 17.3436L20.2058 21.8005C20.3105 21.9051 20.4347 21.9882 20.5714 22.0448C20.7081 22.1014 20.8547 22.1306 21.0027 22.1306C21.1507 22.1306 21.2972 22.1014 21.434 22.0448C21.5707 21.9882 21.6949 21.9051 21.7996 21.8005C21.9042 21.6958 21.9872 21.5716 22.0439 21.4349C22.1005 21.2982 22.1296 21.1516 22.1296 21.0036C22.1296 20.8556 22.1005 20.7091 22.0439 20.5724C21.9872 20.4356 21.9042 20.3114 21.7996 20.2067L21.7958 20.2039ZM4.12487 10.4999C4.12487 9.23902 4.49876 8.00647 5.19925 6.95811C5.89975 5.90975 6.89539 5.09265 8.06026 4.61014C9.22514 4.12763 10.5069 4.00138 11.7436 4.24737C12.9802 4.49335 14.1161 5.10051 15.0077 5.99207C15.8992 6.88363 16.5064 8.01954 16.7524 9.25617C16.9984 10.4928 16.8721 11.7746 16.3896 12.9395C15.9071 14.1044 15.09 15.1 14.0416 15.8005C12.9933 16.501 11.7607 16.8749 10.4999 16.8749C8.80965 16.8731 7.18915 16.2009 5.99398 15.0058C4.79882 13.8106 4.12661 12.1901 4.12487 10.4999Z" fill="black" fill-opacity="0.4"/>
</svg>
