<svg width="20" height="21" viewBox="0 0 20 21" fill="none" xmlns="http://www.w3.org/2000/svg">
<path d="M10 0.828979C8.07164 0.828979 6.18657 1.40081 4.58319 2.47215C2.97982 3.54349 1.73013 5.06624 0.992179 6.84782C0.254224 8.6294 0.061142 10.5898 0.437348 12.4811C0.813554 14.3724 1.74215 16.1097 3.10571 17.4733C4.46928 18.8368 6.20656 19.7654 8.09787 20.1416C9.98919 20.5178 11.9496 20.3248 13.7312 19.5868C15.5127 18.8488 17.0355 17.5992 18.1068 15.9958C19.1782 14.3924 19.75 12.5073 19.75 10.579C19.7473 7.99396 18.7192 5.51559 16.8913 3.6877C15.0634 1.85981 12.585 0.831709 10 0.828979ZM14.2806 8.8596L9.03063 14.1096C8.96097 14.1793 8.87826 14.2347 8.78721 14.2724C8.69616 14.3101 8.59857 14.3296 8.5 14.3296C8.40144 14.3296 8.30385 14.3101 8.2128 14.2724C8.12175 14.2347 8.03903 14.1793 7.96938 14.1096L5.71938 11.8596C5.57865 11.7189 5.49959 11.528 5.49959 11.329C5.49959 11.13 5.57865 10.9391 5.71938 10.7984C5.86011 10.6576 6.05098 10.5786 6.25 10.5786C6.44903 10.5786 6.6399 10.6576 6.78063 10.7984L8.5 12.5187L13.2194 7.79835C13.2891 7.72867 13.3718 7.6734 13.4628 7.63568C13.5539 7.59797 13.6515 7.57856 13.75 7.57856C13.8485 7.57856 13.9461 7.59797 14.0372 7.63568C14.1282 7.6734 14.2109 7.72867 14.2806 7.79835C14.3503 7.86804 14.4056 7.95076 14.4433 8.04181C14.481 8.13285 14.5004 8.23043 14.5004 8.32898C14.5004 8.42753 14.481 8.52511 14.4433 8.61615C14.4056 8.7072 14.3503 8.78992 14.2806 8.8596Z" fill="#01AB31"/>
</svg>
