<svg width="65" height="49" viewBox="0 0 65 49" fill="none" xmlns="http://www.w3.org/2000/svg">
<g filter="url(#filter0_dd_1_4031)">
<rect x="9" y="5" width="46.6143" height="30.0304" rx="5.37857" fill="white"/>
<path d="M32.0222 15.1212L29.848 25.2848H27.2189L29.3935 15.1212H32.0222ZM43.0839 21.6839L44.4681 17.8671L45.2646 21.6839H43.0839ZM46.0173 25.2848H48.4492L46.3271 15.1212H44.0824C43.578 15.1212 43.1524 15.4146 42.963 15.8669L39.0185 25.2848H41.7795L42.3276 23.7671H45.7008L46.0173 25.2848ZM39.1555 21.9663C39.1668 19.2838 35.4459 19.1362 35.4716 17.9379C35.4794 17.5728 35.8271 17.1855 36.5866 17.0861C36.9639 17.0369 38.0013 16.9992 39.1793 17.5413L39.6406 15.386C39.0079 15.1563 38.1937 14.9353 37.1811 14.9353C34.5825 14.9353 32.7534 16.3169 32.738 18.2953C32.7216 19.7583 34.0437 20.5747 35.0399 21.0611C36.0642 21.5594 36.4084 21.8785 36.4039 22.324C36.3971 23.0063 35.5868 23.3068 34.8308 23.3187C33.5087 23.3396 32.7415 22.9619 32.13 22.6769L31.6536 24.9039C32.2677 25.186 33.4016 25.4312 34.578 25.4437C37.3396 25.4437 39.1465 24.0791 39.1555 21.9663ZM28.2653 15.1212L24.0056 25.2848H21.226L19.1299 17.1736C19.0025 16.674 18.8918 16.4913 18.5049 16.2806C17.8734 15.938 16.8295 15.616 15.9111 15.4165L15.9739 15.1212H20.4475C21.0175 15.1212 21.5306 15.5008 21.6599 16.1574L22.7671 22.039L25.503 15.1212H28.2653Z" fill="#1434CB"/>
</g>
<defs>
<filter id="filter0_dd_1_4031" x="0.0357141" y="0.517857" width="64.5428" height="47.9589" filterUnits="userSpaceOnUse" color-interpolation-filters="sRGB">
<feFlood flood-opacity="0" result="BackgroundImageFix"/>
<feColorMatrix in="SourceAlpha" type="matrix" values="0 0 0 0 0 0 0 0 0 0 0 0 0 0 0 0 0 0 127 0" result="hardAlpha"/>
<feOffset dy="0.448214"/>
<feGaussianBlur stdDeviation="2.24107"/>
<feColorMatrix type="matrix" values="0 0 0 0 0.717647 0 0 0 0 0.717647 0 0 0 0 0.717647 0 0 0 0.08 0"/>
<feBlend mode="normal" in2="BackgroundImageFix" result="effect1_dropShadow_1_4031"/>
<feColorMatrix in="SourceAlpha" type="matrix" values="0 0 0 0 0 0 0 0 0 0 0 0 0 0 0 0 0 0 127 0" result="hardAlpha"/>
<feOffset dy="4.48214"/>
<feGaussianBlur stdDeviation="4.48214"/>
<feColorMatrix type="matrix" values="0 0 0 0 0.717647 0 0 0 0 0.717647 0 0 0 0 0.717647 0 0 0 0.08 0"/>
<feBlend mode="normal" in2="effect1_dropShadow_1_4031" result="effect2_dropShadow_1_4031"/>
<feBlend mode="normal" in="SourceGraphic" in2="effect2_dropShadow_1_4031" result="shape"/>
</filter>
</defs>
</svg>
